#Comment line ignore any data following # character 
#Hierarchical Translation and Rotation (.htr) file 
[Header]	
#Header keywords are followed by a single value 
FileType HTR		#Single word string
DataType HTRS		#Translation followed by rotation and scale data
FileVersion 1		#integer
NumSegments 64		#integer
NumFrames 3		#integer
DataFrameRate 30		#integer, data frame rate in this file
EulerRotationOrder ZYX
CalibrationUnits mm
RotationUnits Degrees
GlobalAxisofGravity Y
BoneLengthAxis Y
ScaleFactor 1.00
[SegmentNames&Hierarchy]
#CHILD	PARENT
Pinger_Root GLOBAL
Pelvis Pinger_Root
L_Hip Pelvis
R_Hip Pelvis
Rear_Leg01 Pelvis
Spine1 Pelvis
L_Leg01 L_Hip
L_Leg02 L_Leg01
L_Leg03 L_Leg02
L_Foot L_Leg03
L_Toe1_01 L_Foot
L_Toe2_01 L_Foot
L_Toe3_01 L_Foot
planeAlignerLeft L_Foot
L_Toe1_02 L_Toe1_01
L_Toe1_03 L_Toe1_02
L_Toe2_02 L_Toe2_01
L_Toe2_03 L_Toe2_02
L_Toe3_02 L_Toe3_01
L_Toe3_03 L_Toe3_02
planeLockWeightLeft planeAlignerLeft
R_Leg01 R_Hip
R_Leg02 R_Leg01
R_Leg03 R_Leg02
R_Foot R_Leg03
planeAlignerRight R_Foot
R_Toe1_01 R_Foot
R_Toe2_01 R_Foot
R_Toe3_01 R_Foot
planeLockWeightRight planeAlignerRight
R_Toe1_02 R_Toe1_01
R_Toe1_03 R_Toe1_02
R_Toe2_02 R_Toe2_01
R_Toe2_03 R_Toe2_02
R_Toe3_02 R_Toe3_01
R_Toe3_03 R_Toe3_02
Rear_Leg02 Rear_Leg01
Rear_Leg03 Rear_Leg02
Rear_Leg04 Rear_Leg03
Rear_Foot Rear_Leg04
planeAlignerCenter Rear_Foot
Rear_Toe1_01 Rear_Foot
Rear_Toe2_01 Rear_Foot
Rear_Toe3_01 Rear_Foot
planeLockWeightCenter planeAlignerCenter
Rear_Toe1_02 Rear_Toe1_01
Rear_Toe1_03 Rear_Toe1_02
Rear_Toe2_02 Rear_Toe2_01
Rear_Toe2_03 Rear_Toe2_02
Rear_Toe3_02 Rear_Toe3_01
Rear_Toe3_03 Rear_Toe3_02
Back_Bone Spine1
Head Spine1
Motor_Bone Back_Bone
Ping_Mechanism Back_Bone
BN_LookIK Head
bottomMouth Head
L_Mouth01 Head
L_mouthFront Head
mouthGun Head
R_Mouth01 Head
R_mouthFront Head
TopMouth Head
weapon_bone Head
[BasePosition]
#SegmentName Tx, Ty, Tz, Rx, Ry, Rz, BoneLength
Pinger_Root 0.000000 0.000000 0.000000 -90.000000 0.000000 0.000000 10.000000 
Pelvis 0.000000 0.000000 0.000000 0.000000 0.000000 0.000000 10.000000 
L_Hip 0.000000 0.000000 0.000000 0.000000 0.000000 0.000000 10.000000 
R_Hip 0.000000 0.000000 0.000000 0.000000 0.000000 0.000000 10.000000 
Rear_Leg01 0.000000 0.000000 0.000000 0.000000 0.000000 0.000000 10.000000 
Spine1 0.000000 0.000000 0.000000 0.000000 0.000000 0.000000 10.000000 
L_Leg01 0.000000 0.000000 0.000000 0.000000 0.000000 0.000000 10.000000 
L_Leg02 0.000000 0.000000 0.000000 0.000000 0.000000 0.000000 10.000000 
L_Leg03 0.000000 0.000000 0.000000 0.000000 0.000000 0.000000 10.000000 
L_Foot 0.000000 0.000000 0.000000 0.000000 0.000000 0.000000 10.000000 
L_Toe1_01 0.000000 0.000000 0.000000 0.000000 0.000000 0.000000 10.000000 
L_Toe2_01 0.000000 0.000000 0.000000 0.000000 0.000000 0.000000 10.000000 
L_Toe3_01 0.000000 0.000000 0.000000 0.000000 0.000000 0.000000 10.000000 
planeAlignerLeft 0.000000 0.000000 0.000000 0.000000 0.000000 0.000000 10.000000 
L_Toe1_02 0.000000 0.000000 0.000000 0.000000 0.000000 0.000000 10.000000 
L_Toe1_03 0.000000 0.000000 0.000000 0.000000 0.000000 0.000000 10.000000 
L_Toe2_02 0.000000 0.000000 0.000000 0.000000 0.000000 0.000000 10.000000 
L_Toe2_03 0.000000 0.000000 0.000000 0.000000 0.000000 0.000000 10.000000 
L_Toe3_02 0.000000 0.000000 0.000000 0.000000 0.000000 0.000000 10.000000 
L_Toe3_03 0.000000 0.000000 0.000000 0.000000 0.000000 0.000000 10.000000 
planeLockWeightLeft 0.000000 0.000000 0.000000 0.000000 0.000000 0.000000 10.000000 
R_Leg01 0.000000 0.000000 0.000000 0.000000 0.000000 0.000000 10.000000 
R_Leg02 0.000000 0.000000 0.000000 0.000000 0.000000 0.000000 10.000000 
R_Leg03 0.000000 0.000000 0.000000 0.000000 0.000000 0.000000 10.000000 
R_Foot 0.000000 0.000000 0.000000 0.000000 0.000000 0.000000 10.000000 
planeAlignerRight 0.000000 0.000000 0.000000 0.000000 0.000000 0.000000 10.000000 
R_Toe1_01 0.000000 0.000000 0.000000 0.000000 0.000000 0.000000 10.000000 
R_Toe2_01 0.000000 0.000000 0.000000 0.000000 0.000000 0.000000 10.000000 
R_Toe3_01 0.000000 0.000000 0.000000 0.000000 0.000000 0.000000 10.000000 
planeLockWeightRight 0.000000 0.000000 0.000000 0.000000 0.000000 0.000000 10.000000 
R_Toe1_02 0.000000 0.000000 0.000000 0.000000 0.000000 0.000000 10.000000 
R_Toe1_03 0.000000 0.000000 0.000000 0.000000 0.000000 0.000000 10.000000 
R_Toe2_02 0.000000 0.000000 0.000000 0.000000 0.000000 0.000000 10.000000 
R_Toe2_03 0.000000 0.000000 0.000000 0.000000 0.000000 0.000000 10.000000 
R_Toe3_02 0.000000 0.000000 0.000000 0.000000 0.000000 0.000000 10.000000 
R_Toe3_03 0.000000 0.000000 0.000000 0.000000 0.000000 0.000000 10.000000 
Rear_Leg02 0.000000 0.000000 0.000000 0.000000 0.000000 0.000000 10.000000 
Rear_Leg03 0.000000 0.000000 0.000000 0.000000 0.000000 0.000000 10.000000 
Rear_Leg04 0.000000 0.000000 0.000000 0.000000 0.000000 0.000000 10.000000 
Rear_Foot 0.000000 0.000000 0.000000 0.000000 0.000000 0.000000 10.000000 
planeAlignerCenter 0.000000 0.000000 0.000000 0.000000 0.000000 0.000000 10.000000 
Rear_Toe1_01 0.000000 0.000000 0.000000 0.000000 0.000000 0.000000 10.000000 
Rear_Toe2_01 0.000000 0.000000 0.000000 0.000000 0.000000 0.000000 10.000000 
Rear_Toe3_01 0.000000 0.000000 0.000000 0.000000 0.000000 0.000000 10.000000 
planeLockWeightCenter 0.000000 0.000000 0.000000 0.000000 0.000000 0.000000 10.000000 
Rear_Toe1_02 0.000000 0.000000 0.000000 0.000000 0.000000 0.000000 10.000000 
Rear_Toe1_03 0.000000 0.000000 0.000000 0.000000 0.000000 0.000000 10.000000 
Rear_Toe2_02 0.000000 0.000000 0.000000 0.000000 0.000000 0.000000 10.000000 
Rear_Toe2_03 0.000000 0.000000 0.000000 0.000000 0.000000 0.000000 10.000000 
Rear_Toe3_02 0.000000 0.000000 0.000000 0.000000 0.000000 0.000000 10.000000 
Rear_Toe3_03 0.000000 0.000000 0.000000 0.000000 0.000000 0.000000 10.000000 
Back_Bone 0.000000 0.000000 0.000000 0.000000 0.000000 0.000000 10.000000 
Head 0.000000 0.000000 0.000000 0.000000 0.000000 0.000000 10.000000 
Motor_Bone 0.000000 0.000000 0.000000 0.000000 0.000000 0.000000 10.000000 
Ping_Mechanism 0.000000 0.000000 0.000000 0.000000 0.000000 0.000000 10.000000 
BN_LookIK 0.000000 0.000000 0.000000 0.000000 0.000000 0.000000 10.000000 
bottomMouth 0.000000 0.000000 0.000000 0.000000 0.000000 0.000000 10.000000 
L_Mouth01 0.000000 0.000000 0.000000 0.000000 0.000000 0.000000 10.000000 
L_mouthFront 0.000000 0.000000 0.000000 0.000000 0.000000 0.000000 10.000000 
mouthGun 0.000000 0.000000 0.000000 0.000000 0.000000 0.000000 10.000000 
R_Mouth01 0.000000 0.000000 0.000000 0.000000 0.000000 0.000000 10.000000 
R_mouthFront 0.000000 0.000000 0.000000 0.000000 0.000000 0.000000 10.000000 
TopMouth 0.000000 0.000000 0.000000 0.000000 0.000000 0.000000 10.000000 
weapon_bone 0.000000 0.000000 0.000000 0.000000 0.000000 0.000000 10.000000 
#Beginning of Data. Separated by tabs
#Fr	Tx	Ty	Tz	Rx	Ry	Rz	SF
[Pinger_Root]
130 0.000000 0.000000 0.000000 -0.000075 -0.000000 -0.000020 0.000000
131 0.000000 0.000000 0.000000 -0.000075 -0.000000 -0.000020 0.000000
132 0.000000 0.000000 0.000000 -0.000075 -0.000000 -0.000020 0.000000
[Pelvis]
130 72.227875 916.536438 4422.214355 -103.478500 -86.884918 95.864960 4516.772949
131 72.227875 916.536438 4435.171387 -102.638680 -86.677628 95.024712 4529.459473
132 72.227875 916.536377 4441.218750 -101.898094 -86.469635 94.283722 4535.380859
[L_Hip]
130 5.766392 125.831482 872.656799 160.158691 -45.484905 122.312202 881.701050
131 5.766392 125.831482 872.656799 160.158691 -45.484894 122.312202 881.701050
132 5.766392 125.831482 872.656799 160.158691 -45.484905 122.312202 881.701050
[R_Hip]
130 5.765438 125.836372 -872.654907 38.087841 49.812687 125.703735 881.699829
131 5.765438 125.836372 -872.654907 38.087841 49.812687 125.703735 881.699829
132 5.765438 125.836372 -872.654907 38.087841 49.812687 125.703735 881.699829
[Rear_Leg01]
130 -192.298416 -925.602966 -0.001907 169.681717 1.962201 -158.646423 945.367432
131 -192.298416 -925.602966 -0.001907 169.680099 1.953966 -158.954117 945.367432
132 -192.298416 -925.602966 -0.001907 169.678513 1.945728 -159.261627 945.367432
[Spine1]
130 290.604584 5.007505 0.000477 7.265989 -0.619955 20.202641 290.647736
131 290.604584 5.007505 0.000477 7.266489 -0.619733 19.989534 290.647736
132 290.604584 5.007505 0.000477 7.266984 -0.619509 19.776543 290.647736
[L_Leg01]
130 761.932007 -0.002384 -0.069261 23.644215 -15.117276 -10.823504 761.932068
131 761.932007 -0.002384 -0.069261 23.512934 -15.142958 -10.947085 761.932068
132 761.932007 -0.002384 -0.069261 23.374132 -15.226162 -10.740042 761.932068
[L_Leg02]
130 1441.140503 -0.000954 -0.000715 2.464037 -0.181489 -127.690445 1441.140503
131 1441.140503 -0.000954 -0.000715 2.403390 -0.179741 -127.161079 1441.140503
132 1441.140503 -0.000954 -0.000715 2.398841 -0.178925 -127.094727 1441.140503
[L_Leg03]
130 1686.963989 -0.000715 -0.000954 -0.028683 0.012571 118.038017 1686.963989
131 1686.963989 -0.000715 -0.000954 -0.027421 0.010417 117.908234 1686.963989
132 1686.963989 -0.000715 -0.000954 -0.027782 0.011030 117.941170 1686.963989
[L_Foot]
130 3041.570068 -30.715107 11.297464 1.965962 13.146005 55.291126 3041.746094
131 3041.570068 -30.715107 11.297464 1.975895 13.150217 55.247711 3041.746094
132 3041.570068 -30.715107 11.297464 1.985816 13.154425 55.204361 3041.746094
[L_Toe1_01]
130 -188.216690 -224.732346 -21.137953 93.879730 -6.592225 -173.773422 293.899567
131 -188.216690 -224.732346 -21.137953 93.858330 -6.629056 -173.535797 293.899567
132 -188.216690 -224.732346 -21.137953 93.836761 -6.665802 -173.298096 293.899567
[L_Toe2_01]
130 200.746536 -219.926590 148.838394 -90.781326 -26.392815 -50.841110 332.896027
131 200.746536 -219.926590 148.838394 -90.674904 -26.382854 -51.101948 332.896027
132 200.746536 -219.926590 148.838394 -90.568520 -26.372446 -51.362789 332.896027
[L_Toe3_01]
130 188.832520 -219.859131 -191.078659 -99.655251 14.538975 -65.945709 347.140900
131 188.832520 -219.859131 -191.078659 -99.666298 14.491275 -66.063324 347.140900
132 188.832520 -219.859131 -191.078659 -99.688568 14.380490 -66.339241 347.140900
[planeAlignerLeft]
130 37.373100 -570.531250 95.605171 169.307693 -76.303215 89.968010 579.692139
131 37.078300 -572.045105 95.975273 169.307541 -76.302544 89.968071 581.224243
132 36.378849 -575.633789 96.849930 169.307449 -76.301971 89.968124 584.856873
[L_Toe1_02]
130 413.761139 0.000477 0.000000 0.001384 -26.001616 0.001384 413.761139
131 413.761139 0.000477 0.000000 0.001384 -26.003031 0.001384 413.761139
132 413.761139 0.000477 0.000000 0.001384 -26.004446 0.001384 413.761139
[L_Toe1_03]
130 464.317322 0.000358 -0.000089 0.003959 55.514301 0.003959 464.317322
131 464.317322 0.000358 -0.000089 0.003944 55.377373 0.003944 464.317322
132 464.317322 0.000358 -0.000089 0.003907 55.033585 0.003907 464.317322
[L_Toe2_02]
130 342.235809 -0.000477 0.000238 0.001187 -73.090027 0.001187 342.235809
131 342.235809 -0.000477 0.000238 0.001187 -73.043831 0.001187 342.235809
132 342.235809 -0.000477 0.000238 0.001187 -72.997650 0.001187 342.235809
[L_Toe2_03]
130 420.210846 -0.000715 0.000000 -0.027290 87.421089 -0.023792 420.210846
131 420.210846 -0.000715 0.000000 -0.026034 87.287621 -0.022536 420.210846
132 420.210846 -0.000715 0.000000 -0.009892 86.962036 -0.007094 420.210846
[L_Toe3_02]
130 329.270111 0.000954 0.000000 0.001177 -80.999832 0.001177 329.270111
131 329.270111 0.000954 0.000000 0.001177 -80.934822 0.001177 329.270111
132 329.270111 0.000954 0.000000 0.001177 -80.869911 0.001177 329.270111
[L_Toe3_03]
130 439.137451 -0.001907 0.000954 -179.996887 76.433464 -179.993378 439.137451
131 439.137451 -0.001907 0.000954 -179.996857 76.575089 -179.993332 439.137451
132 439.137451 -0.001907 0.000954 -179.996719 76.921165 -179.993195 439.137451
[planeLockWeightLeft]
130 999.999023 0.098249 0.075955 -0.011826 -0.004376 0.005620 999.999023
131 999.999023 0.098251 0.075955 -0.011826 -0.004376 0.005620 999.999023
132 999.999023 0.098253 0.075954 -0.011826 -0.004376 0.005620 999.999023
[R_Leg01]
130 761.455627 -0.001907 -0.000358 119.749680 -6.762934 36.719044 761.455688
131 761.455627 -0.001907 -0.000358 119.841568 -6.734590 36.774864 761.455688
132 761.455627 -0.001907 -0.000358 119.909271 -6.936377 36.623260 761.455688
[R_Leg02]
130 1441.140625 0.000000 -0.000238 -1.274783 -0.174232 -117.212166 1441.140625
131 1441.140625 0.000000 -0.000238 -1.255370 -0.161735 -116.521431 1441.140625
132 1441.140625 0.000000 -0.000238 -1.247083 -0.165985 -116.434074 1441.140625
[R_Leg03]
130 1686.963989 0.000954 0.001431 0.075928 -0.043294 130.968018 1686.963989
131 1686.963989 0.000954 0.001431 0.074939 -0.040978 130.864624 1686.963989
132 1686.963989 0.000954 0.001431 0.073945 -0.038663 130.761292 1686.963989
[R_Foot]
130 3041.560059 -30.531288 -11.204481 -0.619808 -24.714985 55.008320 3041.734131
131 3041.560059 -30.531288 -11.204481 -0.638804 -24.718353 54.893116 3041.734131
132 3041.560059 -30.531288 -11.204481 -0.657778 -24.721745 54.777985 3041.734131
[planeAlignerRight]
130 -122.254875 -551.784363 -306.849274 -36.594353 -71.358978 -64.330368 643.093079
131 -122.583549 -553.282837 -307.257599 -36.592209 -71.356476 -64.332054 644.636230
132 -123.364349 -556.830688 -308.223663 -36.590046 -71.353989 -64.333763 648.290833
[R_Toe1_01]
130 -188.383347 -224.864899 21.052242 76.852455 -0.888214 -174.561188 294.101532
131 -188.383347 -224.864899 21.052242 76.838852 -0.820862 -174.302704 294.101532
132 -188.383347 -224.864899 21.052242 76.825531 -0.753436 -174.044189 294.101532
[R_Toe2_01]
130 200.637817 -220.002121 -148.787384 -90.940094 33.078938 -57.620609 332.857574
131 200.637817 -220.002121 -148.787384 -91.021393 33.061066 -57.775116 332.857574
132 200.637817 -220.002121 -148.787384 -91.102577 33.043003 -57.929539 332.857574
[R_Toe3_01]
130 188.606735 -220.092957 191.126343 -73.084908 -9.096856 -72.297943 347.192566
131 188.606735 -220.092957 191.126343 -73.103363 -9.007869 -72.499405 347.192566
132 188.606735 -220.092957 191.126343 -73.122147 -8.918935 -72.700897 347.192566
[planeLockWeightRight]
130 999.999329 0.000000 0.075990 -0.011823 -0.004379 -0.000027 999.999329
131 999.999329 0.000000 0.075990 -0.011823 -0.004379 -0.000027 999.999329
132 999.999329 0.000000 0.075990 -0.011823 -0.004379 -0.000027 999.999329
[R_Toe1_02]
130 413.762085 0.000477 -0.000119 0.001397 -24.335587 0.001397 413.762085
131 413.762085 0.000477 -0.000119 0.001396 -24.376057 0.001396 413.762085
132 413.762085 0.000477 -0.000119 0.001396 -24.416555 0.001396 413.762085
[R_Toe1_03]
130 464.317810 0.000000 0.001088 0.007301 71.498680 0.007301 464.317810
131 464.317810 0.000000 0.001088 0.007252 71.373726 0.007252 464.317810
132 464.317810 0.000000 0.001088 0.007137 71.070724 0.007137 464.317810
[R_Toe2_02]
130 342.234741 -0.000954 0.000238 0.001195 -68.355331 0.001195 342.234741
131 342.234741 -0.000954 0.000238 0.001195 -68.317444 0.001195 342.234741
132 342.234741 -0.000954 0.000238 0.001195 -68.141701 0.001195 342.234741
[R_Toe2_03]
130 420.210846 0.000715 -0.000268 0.009656 76.037529 0.009656 420.210846
131 420.210846 0.000715 -0.000268 0.009547 75.877380 0.009547 420.210846
132 420.210846 0.000715 -0.000268 0.009293 75.489960 0.009293 420.210846
[R_Toe3_02]
130 329.270355 -0.000477 -0.000954 0.001183 -75.486977 0.001183 329.270355
131 329.270355 -0.000477 -0.000954 0.001183 -75.453621 0.001183 329.270355
132 329.270355 -0.000477 -0.000954 0.001183 -75.305092 0.001183 329.270355
[R_Toe3_03]
130 439.137939 0.000238 0.001431 -0.017652 85.857780 -0.014153 439.137939
131 439.137939 0.000238 0.001431 -0.017042 85.692154 -0.013543 439.137939
132 439.137939 0.000238 0.001431 -0.015716 85.282921 -0.012216 439.137939
[Rear_Leg02]
130 1162.777710 -0.029802 0.005960 0.647463 -2.913159 -123.928795 1162.777710
131 1162.777710 -0.029802 0.005960 0.622190 -2.919796 -123.462189 1162.777710
132 1162.777710 -0.029802 0.005960 0.621040 -2.920043 -123.417145 1162.777710
[Rear_Leg03]
130 607.192505 -0.013351 -0.073195 0.006471 -0.002124 64.549751 607.192505
131 607.192505 -0.013351 -0.073195 0.006472 -0.002119 64.475601 607.192505
132 607.192505 -0.013351 -0.073195 0.006473 -0.002115 64.401550 607.192505
[Rear_Leg04]
130 995.874512 -0.020504 -0.011921 -0.040582 -0.014988 58.732662 995.874573
131 995.874512 -0.020504 -0.011921 -0.040537 -0.015108 58.392292 995.874573
132 995.874512 -0.020504 -0.011921 -0.040534 -0.015115 58.372417 995.874573
[Rear_Foot]
130 3096.176270 -0.067472 -0.041425 -144.153305 85.730103 48.749432 3096.176270
131 3096.176270 -0.067472 -0.041425 -143.807587 85.749504 48.945274 3096.176270
132 3096.176270 -0.067472 -0.041425 -143.807449 85.749458 48.945324 3096.176270
[planeAlignerCenter]
130 1.038494 -11.545942 -760.245911 12.240772 -0.001473 179.998184 760.334290
131 1.038405 -12.627060 -765.229065 12.240772 -0.001473 179.998184 765.333984
132 1.038316 -13.708297 -770.212708 12.240772 -0.001473 179.998184 770.335388
[Rear_Toe1_01]
130 0.653352 83.966492 -371.173737 0.289991 40.777809 90.412109 380.553192
131 0.653352 83.966492 -371.173737 0.290169 41.112854 90.411858 380.553192
132 0.653352 83.966492 -371.173737 0.290342 41.447941 90.411568 380.553192
[Rear_Toe2_01]
130 178.200760 -294.826019 -362.060547 -5.885615 35.244896 -62.402161 499.765686
131 178.200760 -294.826019 -362.060547 -5.840271 35.561996 -62.425640 499.765686
132 178.200760 -294.826019 -362.060547 -5.794903 35.879185 -62.448940 499.765686
[Rear_Toe3_01]
130 -153.359680 -308.780914 -362.060852 2.345060 34.722092 -115.822029 499.952881
131 -153.359680 -308.780914 -362.060852 2.316549 35.036701 -115.801270 499.952881
132 -153.359680 -308.780914 -362.060852 2.288064 35.351376 -115.780617 499.952881
[planeLockWeightCenter]
130 1000.000244 0.000018 0.076247 -0.011814 -0.004373 -0.000015 1000.000244
131 1000.000244 0.000016 0.076247 -0.011814 -0.004373 -0.000015 1000.000244
132 1000.000244 0.000013 0.076247 -0.011814 -0.004373 -0.000015 1000.000244
[Rear_Toe1_02]
130 379.707825 0.194073 0.000477 -0.000267 -32.018299 0.006948 379.707855
131 379.707825 0.194073 0.000477 -0.000261 -31.932917 0.006944 379.707855
132 379.707825 0.194073 0.000477 -0.000254 -31.847534 0.006941 379.707855
[Rear_Toe1_03]
130 500.129700 0.165701 0.000119 0.000115 53.946609 0.007470 500.129761
131 500.129700 0.165701 0.000119 0.000049 53.346050 0.007416 500.129761
132 500.129700 0.165701 0.000119 -0.000016 52.745377 0.007364 500.129761
[Rear_Toe2_02]
130 340.494507 0.000238 -0.000954 0.001177 -80.934639 0.001177 340.494507
131 340.494507 0.000238 -0.000954 0.001177 -80.767715 0.001177 340.494507
132 340.494507 0.000238 -0.000954 0.001178 -80.600685 0.001178 340.494507
[Rear_Toe2_03]
130 433.103577 0.000000 0.000238 0.000000 89.521935 0.000010 433.103546
131 433.103577 0.000000 0.000238 0.153047 89.121071 0.153047 433.103546
132 433.103577 0.000000 0.000238 0.105017 88.719162 0.105017 433.103546
[Rear_Toe3_02]
130 340.494141 -0.000358 -0.000477 0.001179 -79.489159 0.001179 340.494171
131 340.494141 -0.000358 -0.000477 0.001179 -79.337608 0.001179 340.494171
132 340.494141 -0.000358 -0.000477 0.001179 -79.186096 0.001179 340.494171
[Rear_Toe3_03]
130 433.103577 0.001431 -0.000238 -0.021718 86.701286 -0.018220 433.103546
131 433.103577 0.001431 -0.000238 -0.019542 86.297791 -0.016043 433.103546
132 433.103577 0.001431 -0.000238 -0.017793 85.893867 -0.014294 433.103546
[Back_Bone]
130 1312.175781 -701.934692 0.000954 1.474653 -0.001548 -83.443413 1488.125488
131 1312.175781 -701.934692 0.000954 1.475315 -0.000813 -83.843460 1488.125488
132 1312.175781 -701.934692 0.000954 1.475973 -0.000072 -84.243568 1488.125488
[Head]
130 1406.159424 809.709290 0.001431 0.001958 -1.474686 6.513803 1622.625488
131 1406.159424 809.709290 0.001431 0.001371 -1.475294 7.326701 1622.625488
132 1406.159424 809.709290 0.001431 -0.000908 -1.475623 7.886925 1622.625488
[Motor_Bone]
130 1158.364380 -417.834747 0.000477 -0.095385 0.076104 -105.915703 1231.419434
131 1158.364380 -417.834747 0.000477 -0.095385 0.076104 -105.915703 1231.419434
132 1158.364380 -417.834747 0.000477 -0.095385 0.076104 -105.915703 1231.419434
[Ping_Mechanism]
130 1229.182617 -440.462280 -0.934751 0.000103 -0.000053 82.120995 1305.717285
131 1230.003540 -440.710388 -0.823087 0.000103 -0.000053 82.120995 1306.573853
132 1230.823975 -440.958191 -0.711515 0.000103 -0.000053 82.120995 1307.429688
[BN_LookIK]
130 193.241119 1380.371704 -0.002861 0.000000 89.965736 -31.038179 1393.832153
131 193.241119 1380.371704 -0.002861 0.000000 89.965736 -31.038179 1393.832153
132 193.241119 1380.371704 -0.002861 0.000000 89.965736 -31.038179 1393.832153
[bottomMouth]
130 -435.092926 615.759399 -0.000954 -0.000022 0.000016 73.527184 753.966492
131 -435.092926 615.759399 -0.000954 -0.000022 0.000016 73.527184 753.966492
132 -435.092926 615.759399 -0.000954 -0.000022 0.000016 73.527184 753.966492
[L_Mouth01]
130 554.440979 7.658243 838.222046 150.204178 23.759130 109.605339 1005.027161
131 554.440979 7.658243 838.222046 150.204178 23.759130 109.605339 1005.027161
132 554.440979 7.658243 838.222046 150.204178 23.759130 109.605339 1005.027161
[L_mouthFront]
130 551.629089 934.514771 339.150421 0.000081 2.804060 79.119301 1136.941284
131 551.629089 934.514771 339.150421 0.000081 2.804060 79.119301 1136.941284
132 551.629089 934.514771 339.150421 0.000081 2.804060 79.119301 1136.941284
[mouthGun]
130 55.332661 1627.420898 0.000000 0.000023 0.000009 -11.038128 1628.361328
131 55.332661 1627.420898 0.000000 0.000023 0.000009 -11.038128 1628.361328
132 55.332661 1627.420898 0.000000 0.000023 0.000009 -11.038128 1628.361328
[R_Mouth01]
130 554.442383 7.659197 -838.223938 29.795891 -23.759109 109.605331 1005.029541
131 554.442383 7.659197 -838.223938 29.795891 -23.759109 109.605331 1005.029541
132 554.442383 7.659197 -838.223938 29.795891 -23.759109 109.605331 1005.029541
[R_mouthFront]
130 551.629089 934.514282 -339.151367 0.000029 -2.803930 79.119133 1136.941162
131 551.629089 934.514282 -339.151367 0.000029 -2.803930 79.119133 1136.941162
132 551.629089 934.514282 -339.151367 0.000029 -2.803930 79.119133 1136.941162
[TopMouth]
130 461.269867 -56.106091 -0.008583 -0.000059 -0.000268 92.025169 464.669525
131 461.269867 -56.106091 -0.008583 -0.000059 -0.000268 92.025169 464.669525
132 461.269867 -56.106091 -0.008583 -0.000059 -0.000268 92.025169 464.669525
[weapon_bone]
130 -987.239868 1448.372803 0.001431 0.000000 89.965736 -31.038221 1752.833740
131 -987.239868 1448.372803 0.001431 0.000000 89.965736 -31.038221 1752.833740
132 -987.239868 1448.372803 0.001431 0.000000 89.965736 -31.038221 1752.833740
